<?xml version="1.0" standalone="no"?>
<!DOCTYPE svg PUBLIC "-//W3C//DTD SVG 20010904//EN"
 "http://www.w3.org/TR/2001/REC-SVG-20010904/DTD/svg10.dtd">
<svg version="1.0" xmlns="http://www.w3.org/2000/svg"
 width="1080.000000pt" height="1080.000000pt" viewBox="0 0 1080.000000 1080.000000"
 preserveAspectRatio="xMidYMid meet">

<g transform="translate(0.000000,1080.000000) scale(0.100000,-0.100000)"
fill="#000000" stroke="none">
<path d="M3171 7303 c1 -10 4 -29 8 -42 6 -21 8 -22 20 -7 16 20 7 66 -14 66
-8 0 -15 -8 -14 -17z"/>
<path d="M3260 7280 c-13 -9 -13 -11 0 -20 8 -5 36 -13 62 -16 26 -4 53 -12
59 -20 14 -17 89 -28 135 -19 53 9 29 26 -47 32 -48 4 -68 10 -80 26 -18 23
-104 35 -129 17z"/>
<path d="M3612 7183 c-30 -12 5 -23 74 -23 72 0 97 11 52 24 -27 7 -108 7
-126 -1z"/>
<path d="M3837 7134 c-4 -4 -4 -11 -1 -15 7 -12 121 -12 128 0 9 15 -113 29
-127 15z"/>
<path d="M3175 7090 c-10 -16 4 -62 15 -55 13 8 13 52 1 60 -5 3 -13 0 -16 -5z"/>
<path d="M4085 7081 c-16 -7 -14 -9 14 -14 44 -9 151 -8 176 2 16 7 14 9 -14
14 -44 9 -151 8 -176 -2z"/>
<path d="M4460 7030 c-11 -7 -3 -10 30 -9 34 0 40 2 25 9 -27 12 -37 12 -55 0z"/>
<path d="M4610 7030 c-10 -7 6 -9 55 -9 64 1 66 2 30 10 -53 11 -67 11 -85 -1z"/>
<path d="M3181 6407 c-1 -410 2 -616 9 -612 12 7 12 1153 0 1200 -4 17 -8
-248 -9 -588z"/>
<path d="M4271 6624 c-22 -16 -23 -19 -19 -170 3 -131 6 -156 21 -171 16 -16
20 -17 45 -2 23 13 27 21 24 51 -4 47 27 72 73 60 31 -9 53 -43 79 -124 8 -28
40 -39 63 -23 18 12 19 19 10 77 -11 81 -11 91 -2 160 l8 58 -43 39 c-41 37
-48 40 -124 46 -45 3 -88 8 -96 11 -9 2 -26 -3 -39 -12z m176 -98 c24 -20 25
-26 14 -40 -34 -41 -126 -2 -101 43 14 28 52 27 87 -3z"/>
<path d="M4660 6583 c-31 -11 -35 -31 -32 -181 4 -183 -5 -174 163 -180 99 -4
118 -2 132 13 9 9 17 21 17 26 0 15 -48 29 -114 33 -33 2 -67 4 -74 5 -7 1
-17 13 -23 28 -13 36 0 43 87 43 52 0 75 4 84 16 21 24 -10 46 -72 51 -88 7
-98 11 -98 39 0 33 29 43 91 30 43 -9 52 -7 75 10 33 25 34 36 4 50 -27 12
-215 25 -240 17z"/>
<path d="M6323 6553 c-17 -21 -35 -54 -42 -74 -6 -20 -20 -53 -31 -74 -11 -22
-20 -46 -20 -53 0 -8 -9 -30 -21 -49 -24 -38 -19 -63 11 -63 19 0 34 13 84 71
12 14 29 19 66 19 41 0 52 -4 65 -24 9 -13 27 -26 40 -28 47 -9 58 32 27 92
-11 19 -22 48 -26 65 -4 16 -13 36 -19 44 -7 7 -19 34 -27 60 -13 40 -19 46
-46 49 -26 3 -36 -3 -61 -35z m67 -115 l20 -33 -27 -11 c-48 -20 -63 -2 -43
50 13 35 26 33 50 -6z"/>
<path d="M4998 6552 c-8 -9 -14 -49 -15 -96 -1 -45 -3 -88 -4 -96 -6 -47 3
-110 19 -130 15 -18 21 -20 45 -11 23 9 27 16 27 50 0 45 20 63 67 59 60 -4
83 3 117 36 26 24 36 42 36 63 0 94 -58 136 -192 138 -68 2 -91 -1 -100 -13z
m153 -63 c55 -19 65 -32 43 -63 -48 -66 -142 -26 -114 49 11 28 22 30 71 14z"/>
<path d="M5946 6563 c-77 -20 -137 -102 -135 -185 1 -61 46 -141 85 -149 16
-3 39 -11 52 -18 19 -10 28 -10 47 3 14 9 37 16 53 16 56 0 114 84 80 118 -9
9 -22 2 -56 -29 -42 -39 -47 -41 -94 -37 -27 3 -55 11 -61 17 -7 7 -12 41 -12
81 0 63 3 71 30 100 43 45 67 47 124 11 49 -32 74 -33 85 -4 8 19 -18 49 -56
69 -26 13 -102 17 -142 7z"/>
<path d="M5379 6543 c-36 -41 -59 -110 -43 -126 4 -4 6 -46 5 -94 -3 -127 -1
-129 140 -125 62 2 116 5 120 8 4 2 4 16 0 32 -7 25 -11 27 -77 32 -38 3 -75
9 -81 13 -9 6 -13 42 -13 121 0 94 -3 118 -18 136 -17 21 -18 21 -33 3z"/>
<path d="M5674 6538 c-5 -7 -10 -78 -12 -158 -4 -165 3 -189 50 -171 42 16 48
38 44 167 -5 151 -3 140 -22 158 -18 19 -50 21 -60 4z"/>
<path d="M3796 6128 c-12 -38 -15 -112 -5 -124 18 -21 38 -17 51 11 14 32 19
31 40 -4 23 -42 72 -64 125 -58 25 2 57 0 73 -6 39 -15 68 10 62 53 -3 18 0
30 7 30 6 0 11 -6 11 -14 0 -8 10 -22 21 -30 12 -8 30 -29 41 -47 l20 -33 20
27 c26 35 44 34 57 -3 7 -22 16 -30 35 -30 43 0 56 10 56 45 0 34 18 49 46 38
9 -3 13 -12 9 -22 -4 -9 -9 -28 -12 -43 -7 -34 16 -46 54 -29 22 10 28 8 49
-14 29 -32 56 -32 90 0 27 25 27 25 48 6 18 -16 32 -19 91 -15 39 2 77 4 85 5
8 0 34 -3 56 -6 27 -5 44 -3 48 4 5 7 -3 11 -21 11 -34 0 -50 10 -53 30 -5 34
1 40 38 40 20 0 44 5 52 10 26 17 -9 31 -60 25 -68 -8 -84 -9 -99 -4 -10 3
-17 -8 -21 -34 -4 -21 -15 -46 -24 -55 -15 -15 -18 -15 -26 -2 -5 8 -10 29
-10 47 0 55 -8 63 -59 63 -25 0 -55 7 -65 15 -27 21 -49 19 -64 -5 -17 -27
-37 -25 -60 7 -15 21 -27 26 -58 25 -90 -3 -109 -1 -132 14 -18 12 -38 15 -70
11 -29 -3 -53 0 -66 8 -35 22 -89 28 -111 12 -17 -13 -24 -13 -55 3 -74 38
-207 62 -214 38z m845 -189 c15 -29 -1 -43 -40 -34 -34 7 -41 28 -13 44 26 16
40 13 53 -10z"/>
<path d="M6909 6053 c-12 -31 -6 -53 16 -53 11 0 15 11 15 40 0 46 -16 53 -31
13z"/>
<path d="M6730 6028 c0 -13 -5 -30 -10 -38 -7 -11 -5 -17 8 -22 24 -9 110 -10
116 0 8 13 -7 28 -34 35 -14 3 -35 15 -47 27 -28 26 -33 25 -33 -2z"/>
<path d="M6641 5985 c-1 -46 0 -48 16 -33 12 12 13 21 6 30 -6 7 -13 22 -16
33 -2 11 -5 -2 -6 -30z"/>
<path d="M6385 5990 c-16 -31 -42 -39 -62 -19 -7 7 -18 9 -27 6 -22 -9 -8 -46
25 -62 33 -18 60 -19 112 -4 36 10 38 12 23 28 -9 9 -21 32 -27 49 -14 40 -24
40 -44 2z"/>
<path d="M3451 5991 c-6 -10 -8 -21 -4 -24 3 -4 6 -28 7 -54 1 -42 5 -50 34
-69 27 -19 37 -20 61 -11 24 9 33 7 56 -11 19 -15 42 -22 72 -22 28 0 54 -7
71 -20 15 -11 46 -22 68 -26 34 -5 46 -2 63 15 26 26 33 26 49 0 8 -13 21 -19
35 -17 18 2 23 11 27 48 5 44 22 58 28 23 23 -124 50 -117 69 18 5 36 4 36
-40 48 -25 6 -65 8 -90 5 -49 -7 -115 10 -133 34 -7 9 -28 14 -63 14 -37 -1
-57 4 -70 17 -26 26 -63 32 -92 17 -23 -12 -28 -11 -48 10 -29 30 -86 33 -100
5z m256 -115 c-5 -15 -57 -20 -71 -6 -19 19 20 41 50 28 14 -6 23 -16 21 -22z
m123 -47 c0 -5 -7 -9 -15 -9 -15 0 -20 12 -9 23 8 8 24 -1 24 -14z"/>
<path d="M6152 5987 c-6 -7 -16 -24 -21 -37 -6 -14 -16 -32 -23 -41 -6 -9 -8
-24 -4 -34 6 -16 9 -15 31 9 24 26 55 27 55 1 0 -20 16 -26 45 -19 33 8 32 28
-5 56 -16 12 -30 30 -30 40 0 24 -34 42 -48 25z"/>
<path d="M5040 5980 c-8 -5 -12 -11 -10 -12 3 -2 17 -12 32 -21 18 -11 28 -27
30 -49 2 -18 7 -33 13 -33 12 0 27 97 17 106 -13 12 -68 18 -82 9z"/>
<path d="M6006 5974 c-9 -23 -7 -67 4 -84 10 -17 12 -16 34 27 20 40 20 59 0
67 -24 9 -31 7 -38 -10z"/>
<path d="M5806 5945 c-20 -30 -15 -69 9 -79 19 -7 57 50 53 79 -4 31 -42 31
-62 0z"/>
<path d="M5417 5949 c-9 -6 -32 -9 -50 -7 -32 3 -32 3 -32 -42 l0 -45 35 3
c59 5 94 4 126 -3 36 -8 59 13 49 45 -5 15 -12 19 -28 15 -16 -4 -29 1 -45 19
-24 29 -29 30 -55 15z"/>
<path d="M5219 5938 c-9 -7 -19 -25 -23 -40 -5 -23 -2 -28 26 -37 39 -14 49
-2 46 49 -3 38 -23 49 -49 28z"/>
<path d="M6520 5935 c-16 -19 8 -30 46 -21 25 7 26 8 8 21 -25 19 -39 19 -54
0z"/>
<path d="M5627 5904 c-6 -33 7 -54 24 -37 8 8 7 18 -4 38 l-14 28 -6 -29z"/>
<path d="M7111 5887 c-18 -22 -17 -58 1 -71 15 -9 22 -6 43 16 31 34 32 54 3
62 -32 8 -34 8 -47 -7z"/>
<path d="M7260 5879 c0 -11 4 -18 10 -14 5 3 7 12 3 20 -7 21 -13 19 -13 -6z"/>
<path d="M6924 5871 c3 -5 15 -7 26 -4 28 7 25 13 -6 13 -14 0 -23 -4 -20 -9z"/>
<path d="M7010 5849 c0 -38 24 -35 28 4 2 19 -1 27 -12 27 -11 0 -16 -10 -16
-31z"/>
<path d="M4123 5864 c-18 -8 -16 -35 3 -63 13 -18 14 -28 5 -47 -14 -31 5 -41
76 -43 56 -1 71 13 48 46 -7 10 -15 32 -17 48 -2 20 -11 34 -28 42 -34 16 -72
23 -87 17z"/>
<path d="M6860 5819 c0 -28 19 -61 31 -54 5 4 9 22 9 41 0 27 -4 34 -20 34
-14 0 -20 -7 -20 -21z"/>
<path d="M7205 5830 c-3 -5 1 -10 9 -10 9 0 16 5 16 10 0 6 -4 10 -9 10 -6 0
-13 -4 -16 -10z"/>
<path d="M6742 5810 c-43 -26 -37 -45 14 -45 36 0 39 2 39 29 0 37 -12 41 -53
16z"/>
<path d="M4365 5813 c-20 -15 -45 -63 -45 -86 0 -28 24 -54 35 -37 11 17 64
11 85 -10 25 -25 52 -25 75 0 17 19 18 19 37 -6 17 -21 25 -24 54 -18 26 5 40
2 55 -12 16 -15 23 -16 37 -6 9 7 32 19 50 27 25 12 32 21 32 44 0 17 -6 31
-15 35 -8 3 -19 16 -24 30 -11 28 -58 39 -92 20 -16 -8 -31 -9 -47 -3 -19 7
-29 5 -44 -7 -17 -16 -20 -16 -43 6 -28 27 -50 21 -67 -16 l-12 -26 -11 33
c-12 34 -39 48 -60 32z m339 -82 c3 -5 -1 -12 -10 -15 -22 -9 -24 -8 -24 9 0
16 25 21 34 6z"/>
<path d="M6580 5790 c-6 -12 -10 -31 -8 -43 3 -20 9 -22 62 -22 67 0 85 17 39
37 -15 7 -40 20 -55 30 -26 18 -27 18 -38 -2z"/>
<path d="M6977 5795 c-4 -8 -2 -17 3 -20 6 -4 10 3 10 14 0 25 -6 27 -13 6z"/>
<path d="M6440 5752 c0 -47 2 -50 41 -44 42 6 46 26 12 56 -40 36 -53 33 -53
-12z"/>
<path d="M6233 5757 c-40 -23 -42 -49 -7 -76 31 -25 40 -21 59 25 25 60 1 83
-52 51z"/>
<path d="M4850 5755 c-10 -13 -10 -24 2 -63 l16 -47 54 0 c30 0 61 -6 70 -13
16 -12 48 -7 48 8 0 5 9 12 20 15 13 4 20 15 20 31 0 30 21 39 63 27 40 -11
45 -47 7 -51 -79 -9 -92 -25 -32 -42 34 -9 39 -8 59 17 l22 27 30 -22 c35 -25
69 -28 96 -8 16 11 23 11 40 1 12 -7 58 -13 113 -14 51 0 98 -2 104 -4 6 -1
19 13 29 32 18 39 13 78 -13 95 -23 14 -49 -10 -43 -38 8 -34 -7 -49 -39 -36
-23 8 -25 13 -16 29 17 33 12 41 -27 42 -21 0 -47 4 -58 8 -22 9 -46 0 -76
-30 -26 -26 -35 -24 -51 8 -16 34 -41 40 -66 15 -17 -17 -21 -17 -41 -4 -18
13 -31 13 -73 3 -43 -10 -54 -9 -68 4 -21 19 -44 19 -60 0 -17 -21 -56 -19
-80 5 -24 24 -33 25 -50 5z"/>
<path d="M5762 5743 c-10 -4 -10 -8 -1 -19 13 -16 28 -18 49 -4 13 9 13 11 0
20 -16 11 -28 11 -48 3z"/>
<path d="M5875 5733 c37 -9 47 -25 42 -66 -5 -38 -5 -39 21 -32 31 7 54 33 50
54 -5 22 -59 50 -98 49 -20 0 -27 -2 -15 -5z"/>
<path d="M3175 5603 c-7 -121 2 -943 11 -952 2 -2 6 -2 8 0 2 2 8 189 12 414
7 398 0 665 -16 665 -4 0 -11 -57 -15 -127z"/>
<path d="M5658 5703 c-13 -16 -13 -22 -2 -50 25 -60 62 -35 50 32 -8 38 -25
45 -48 18z"/>
<path d="M3985 5656 c-17 -12 -18 -20 -9 -72 l9 -59 72 0 c60 0 77 -4 104 -24
26 -19 36 -22 50 -12 25 15 54 14 69 -4 9 -10 37 -14 112 -14 76 0 105 -4 118
-16 35 -32 60 -14 60 45 0 22 -5 29 -22 32 -16 2 -24 11 -27 28 -3 25 -17 40
-37 40 -7 0 -19 -17 -27 -39 -15 -36 -19 -39 -68 -45 -40 -6 -56 -4 -67 8 -14
14 -14 17 2 35 13 15 26 19 47 14 23 -4 29 -2 29 12 0 12 -7 16 -27 14 -16 -1
-40 3 -56 9 -39 16 -103 -17 -112 -59 -7 -29 -35 -41 -35 -14 0 8 -9 19 -20
25 -35 19 -25 40 19 40 27 0 41 5 45 16 9 25 -12 44 -49 44 -25 0 -38 -8 -59
-34 -14 -19 -26 -39 -26 -44 0 -5 -6 -15 -14 -21 -12 -10 -17 -8 -25 8 -6 11
-11 33 -11 49 0 39 -20 56 -45 38z"/>
<path d="M6390 5590 c0 -5 9 -10 21 -10 11 0 17 5 14 10 -3 6 -13 10 -21 10
-8 0 -14 -4 -14 -10z"/>
<path d="M6567 5592 c-3 -4 3 -17 13 -30 l19 -22 15 21 c8 12 13 26 10 31 -6
10 -51 11 -57 0z"/>
<path d="M4574 5556 c-3 -7 9 -27 26 -44 l31 -31 20 20 c16 16 23 18 35 8 8
-6 14 -18 14 -26 0 -8 12 -25 26 -38 25 -23 33 -25 105 -21 61 4 85 10 106 26
l27 21 19 -25 c22 -30 57 -34 101 -11 40 21 53 19 64 -12 6 -16 11 -22 11 -15
1 6 12 12 25 12 13 0 26 6 28 13 9 22 -3 37 -28 37 -14 0 -27 7 -31 18 -19 52
-53 60 -115 24 -25 -15 -27 -14 -51 14 -24 28 -26 28 -44 11 -26 -23 -48 -22
-83 5 -27 19 -35 20 -84 12 -40 -8 -65 -7 -98 3 -56 17 -97 16 -104 -1z m279
-48 c8 -22 -12 -60 -29 -56 -23 4 -39 31 -31 52 7 19 53 22 60 4z"/>
<path d="M6437 5533 c-7 -41 3 -59 27 -50 21 8 31 54 16 72 -21 25 -37 17 -43
-22z"/>
<path d="M6722 5557 c-14 -17 2 -42 22 -34 20 8 20 21 2 36 -10 8 -16 8 -24
-2z"/>
<path d="M6175 5534 c-14 -15 -25 -31 -25 -35 0 -11 46 -23 64 -16 17 7 26 53
13 66 -16 16 -26 14 -52 -15z"/>
<path d="M6330 5550 c-19 -4 -26 -13 -28 -38 -3 -29 -1 -32 23 -32 28 0 38 16
33 52 -2 20 -7 23 -28 18z"/>
<path d="M6003 5543 c-17 -6 -16 -28 1 -42 11 -10 17 -7 30 11 12 17 13 24 3
30 -13 9 -16 9 -34 1z"/>
<path d="M5668 5533 c7 -3 16 -2 19 1 4 3 -2 6 -13 5 -11 0 -14 -3 -6 -6z"/>
<path d="M5884 5524 c3 -9 6 -22 6 -30 0 -10 12 -14 40 -14 41 0 47 8 30 41
-14 25 -86 28 -76 3z"/>
<path d="M5311 5488 c-34 -46 -34 -47 -23 -66 7 -10 15 -10 35 -3 19 7 35 7
52 -1 25 -11 55 2 55 24 0 11 -73 88 -83 88 -3 0 -19 -19 -36 -42z"/>
<path d="M5590 5509 c-36 -17 -51 -19 -73 -11 -29 11 -57 7 -57 -8 0 -13 68
-80 82 -80 6 0 20 8 31 17 18 17 20 17 41 -10 12 -15 25 -27 29 -27 4 0 7 32
7 70 0 39 -3 70 -7 70 -5 0 -28 -10 -53 -21z"/>
<path d="M5720 5470 c0 -22 4 -40 9 -40 12 0 25 56 16 70 -13 22 -25 8 -25
-30z"/>
<path d="M6012 5460 c0 -14 2 -19 5 -12 2 6 2 18 0 25 -3 6 -5 1 -5 -13z"/>
<path d="M3634 5325 c-27 -12 -33 -22 -42 -67 -17 -86 18 -128 104 -128 27 0
38 6 52 29 l18 29 17 -49 c10 -27 22 -49 27 -49 5 0 19 18 30 40 13 26 27 40
40 40 13 0 20 7 20 18 0 29 -21 42 -69 42 -40 0 -49 5 -98 55 -30 30 -57 55
-61 54 -4 0 -21 -7 -38 -14z m64 -94 c7 -20 7 -32 -1 -40 -15 -15 -47 -14 -48
2 -6 64 30 93 49 38z"/>
<path d="M3965 5170 c-3 -5 -19 -10 -36 -10 -26 0 -29 -3 -29 -30 0 -26 3 -30
29 -30 23 0 35 -10 65 -55 30 -46 41 -55 66 -55 61 0 96 76 68 148 l-14 37
-71 3 c-42 2 -74 -1 -78 -8z m95 -74 c-14 -14 -24 0 -16 21 6 15 8 15 16 3 6
-9 5 -19 0 -24z"/>
<path d="M4175 5130 c-20 -22 -13 -87 10 -96 23 -9 55 15 55 42 0 55 -37 85
-65 54z"/>
<path d="M4283 5125 c-28 -12 -32 -17 -24 -37 8 -20 15 -23 56 -20 38 2 51 -2
66 -19 11 -12 19 -28 19 -35 0 -15 37 -27 66 -23 11 2 30 -3 43 -10 22 -12 27
-11 43 9 21 26 24 69 6 92 -7 8 -28 21 -46 28 -37 14 -62 2 -62 -32 0 -18 -4
-20 -32 -14 -18 4 -34 10 -36 14 -21 59 -46 71 -99 47z"/>
<path d="M4612 5118 c-23 -23 -8 -148 18 -148 19 0 36 48 32 90 -6 62 -24 84
-50 58z"/>
<path d="M4721 5041 c-18 -25 -19 -30 -5 -35 11 -4 18 1 21 14 3 11 14 20 24
20 11 0 19 7 19 15 0 25 -38 17 -59 -14z"/>
<path d="M4841 5050 c-13 -11 -29 -20 -37 -20 -21 0 -20 -116 2 -124 9 -3 17
-6 19 -6 12 0 59 120 57 143 -4 32 -9 33 -41 7z"/>
<path d="M4950 5061 c0 -6 5 -13 10 -16 6 -3 10 1 10 9 0 9 -4 16 -10 16 -5 0
-10 -4 -10 -9z"/>
<path d="M4945 4971 c-7 -12 12 -24 25 -16 11 7 4 25 -10 25 -5 0 -11 -4 -15
-9z"/>
<path d="M3606 4781 c-3 -5 1 -14 8 -20 16 -13 32 2 21 19 -8 12 -22 13 -29 1z"/>
<path d="M4763 4783 c-17 -6 -16 -20 1 -26 8 -3 17 1 20 8 6 17 -3 24 -21 18z"/>
<path d="M3845 4731 c-7 -12 12 -24 25 -16 11 7 4 25 -10 25 -5 0 -11 -4 -15
-9z"/>
<path d="M5095 4720 c4 -6 11 -8 16 -5 14 9 11 15 -7 15 -8 0 -12 -5 -9 -10z"/>
<path d="M5821 4691 c-1 -27 2 -32 11 -23 8 8 8 17 0 34 -10 22 -11 21 -11
-11z"/>
<path d="M3604 4628 c-17 -27 -22 -103 -8 -135 15 -38 20 -40 49 -13 48 45
115 31 115 -26 0 -13 4 -24 8 -24 15 0 82 73 82 90 0 27 -26 43 -60 37 -26 -6
-32 -2 -45 23 -9 17 -22 30 -29 30 -7 0 -19 7 -26 15 -15 18 -76 20 -86 3z
m86 -38 c0 -11 -7 -20 -15 -20 -8 0 -15 9 -15 20 0 11 7 20 15 20 8 0 15 -9
15 -20z"/>
<path d="M3902 4504 c-28 -19 -29 -63 -2 -96 36 -47 87 -42 78 6 -3 14 -1 26
3 26 16 0 9 47 -9 63 -23 21 -41 21 -70 1z"/>
<path d="M4023 4464 c-16 -25 -16 -27 2 -40 10 -8 22 -14 25 -14 4 0 12 -12
18 -26 9 -18 19 -24 35 -22 18 2 23 10 25 41 3 32 0 37 -17 37 -11 0 -28 11
-37 25 -21 32 -29 31 -51 -1z"/>
<path d="M6726 4446 c-8 -48 -2 -70 17 -63 13 4 11 87 -3 100 -4 5 -11 -12
-14 -37z"/>
<path d="M4200 4463 c-19 -3 -39 -8 -43 -13 -12 -11 20 -70 52 -97 31 -26 54
-29 71 -8 7 8 18 15 25 15 21 0 34 23 28 52 -4 21 -15 30 -51 42 -25 9 -46 15
-46 14 -1 0 -17 -3 -36 -5z"/>
<path d="M4373 4444 c-18 -8 -16 -41 2 -48 13 -5 13 -9 3 -25 -17 -28 -5 -35
44 -25 32 7 44 14 45 29 6 40 -56 85 -94 69z"/>
<path d="M6006 4425 c4 -8 10 -15 15 -15 5 0 9 7 9 15 0 8 -7 15 -15 15 -9 0
-12 -6 -9 -15z"/>
<path d="M6503 4433 c9 -2 25 -2 35 0 9 3 1 5 -18 5 -19 0 -27 -2 -17 -5z"/>
<path d="M6626 4411 c-17 -19 -18 -21 -2 -27 22 -9 36 6 27 29 -6 17 -8 17
-25 -2z"/>
<path d="M5917 4413 c-11 -10 -8 -121 2 -128 6 -3 15 3 21 14 6 12 25 24 43
29 44 11 48 37 5 37 -23 0 -35 6 -44 23 -14 29 -19 33 -27 25z"/>
<path d="M6396 4405 c-11 -30 -7 -77 7 -73 15 6 21 52 9 74 -8 15 -10 15 -16
-1z"/>
<path d="M4527 4389 c-52 -27 -48 -56 13 -86 83 -43 113 -29 122 57 3 29 -1
35 -22 41 -43 12 -74 9 -113 -12z m63 -49 c0 -5 -5 -10 -11 -10 -5 0 -7 5 -4
10 3 6 8 10 11 10 2 0 4 -4 4 -10z"/>
<path d="M4713 4403 c-43 -8 -20 -53 27 -53 34 0 53 14 48 36 -3 20 -32 26
-75 17z"/>
<path d="M6286 4391 c-7 -11 18 -33 27 -24 4 3 7 12 7 20 0 15 -26 18 -34 4z"/>
<path d="M5716 4364 c-4 -15 -2 -32 6 -41 11 -14 14 -12 25 13 17 41 16 54 -6
54 -12 0 -21 -9 -25 -26z"/>
<path d="M6095 4361 c-9 -30 12 -63 38 -59 18 2 22 10 22 38 0 30 -3 35 -27
38 -19 2 -28 -2 -33 -17z"/>
<path d="M5048 4359 c-21 -12 -24 -59 -6 -77 19 -19 37 -14 75 23 35 34 36 36
17 50 -22 17 -62 19 -86 4z"/>
<path d="M4847 4348 c-25 -19 -12 -58 20 -58 21 0 24 4 21 32 -3 36 -16 44
-41 26z"/>
<path d="M5365 4348 c-21 -53 1 -99 39 -85 13 5 16 17 14 49 -2 36 -7 44 -26
46 -12 2 -24 -3 -27 -10z"/>
<path d="M5477 4353 c-11 -11 -8 -48 6 -67 12 -16 14 -14 30 20 15 30 16 39 5
45 -16 11 -32 11 -41 2z"/>
<path d="M6487 4354 c-11 -12 3 -24 28 -24 13 0 26 4 29 9 10 15 -43 29 -57
15z"/>
<path d="M5290 4310 c-8 -14 -8 -26 0 -40 13 -24 14 -24 34 -4 22 21 20 41 -4
54 -15 8 -21 6 -30 -10z"/>
<path d="M4952 4308 c-18 -18 -15 -28 7 -28 26 0 34 15 18 29 -10 8 -17 7 -25
-1z"/>
<path d="M5603 4293 c9 -2 23 -2 30 0 6 3 -1 5 -18 5 -16 0 -22 -2 -12 -5z"/>
<path d="M4337 4124 c-10 -11 -9 -52 2 -59 13 -8 24 32 14 50 -5 9 -12 12 -16
9z"/>
<path d="M3610 4100 c0 -5 7 -10 15 -10 8 0 15 5 15 10 0 6 -7 10 -15 10 -8 0
-15 -4 -15 -10z"/>
<path d="M4431 4094 c0 -11 3 -14 6 -6 3 7 2 16 -1 19 -3 4 -6 -2 -5 -13z"/>
<path d="M4522 4023 c-9 -16 -9 -24 -1 -29 16 -10 28 8 19 31 -7 19 -7 19 -18
-2z"/>
<path d="M4960 4004 c0 -8 5 -12 10 -9 6 4 8 11 5 16 -9 14 -15 11 -15 -7z"/>
<path d="M4368 4003 c7 -3 16 -2 19 1 4 3 -2 6 -13 5 -11 0 -14 -3 -6 -6z"/>
<path d="M3600 3965 c-15 -18 -9 -150 8 -167 7 -7 24 3 53 32 l43 42 -24 19
c-21 16 -23 20 -10 29 8 5 18 10 23 10 14 0 7 38 -9 44 -28 11 -71 6 -84 -9z"/>
<path d="M3749 3880 c-14 -8 -15 -17 -8 -52 16 -67 26 -78 36 -38 6 23 19 40
36 48 43 21 37 30 -33 47 -8 3 -22 0 -31 -5z"/>
<path d="M3873 3815 c-41 -43 -42 -64 -3 -72 17 -3 33 -10 36 -14 11 -18 51
-8 90 21 21 16 51 30 65 30 34 0 59 27 38 41 -31 19 -79 6 -79 -22 0 -25 -16
-24 -30 1 -8 15 -75 54 -84 49 0 0 -16 -16 -33 -34z"/>
<path d="M4135 3775 c-16 -8 -46 -18 -65 -23 -33 -8 -35 -10 -35 -52 0 -48 13
-58 60 -46 18 5 27 17 36 49 10 37 13 40 23 23 6 -10 18 -28 27 -39 16 -21 17
-21 37 20 12 23 31 43 44 47 l23 6 -25 15 c-32 18 -87 19 -125 0z"/>
<path d="M4324 3772 c-5 -4 -10 -28 -10 -54 1 -42 4 -49 28 -59 14 -6 37 -9
50 -7 20 3 23 9 23 43 0 33 -5 43 -34 62 -37 25 -41 26 -57 15z"/>
<path d="M6573 3772 c-8 -5 -6 -16 7 -41 l18 -35 7 32 c9 44 -4 62 -32 44z"/>
<path d="M4459 3714 c-20 -54 21 -84 48 -35 10 17 23 31 29 31 17 0 34 -23 34
-46 0 -31 10 -34 42 -14 l28 17 -28 25 c-15 14 -40 28 -57 31 -16 3 -42 9 -57
13 -24 5 -29 2 -39 -22z"/>
<path d="M4663 3733 c-7 -2 -13 -13 -13 -24 0 -22 38 -26 72 -8 21 11 21 12 3
25 -19 14 -40 17 -62 7z"/>
<path d="M6157 3733 c-10 -9 -9 -41 1 -47 4 -2 13 4 20 14 8 14 8 21 -2 29 -7
6 -16 8 -19 4z"/>
<path d="M4828 3709 c-48 -25 -51 -32 -34 -74 16 -38 31 -43 62 -21 10 8 28
13 40 10 14 -4 23 1 31 19 13 27 9 34 -32 63 -31 21 -31 21 -67 3z"/>
<path d="M5054 3716 c-9 -22 0 -111 11 -111 6 0 13 20 16 43 6 50 21 63 64 60
28 -3 30 -6 35 -53 4 -42 8 -50 25 -50 26 0 36 50 19 86 -10 21 -23 27 -60 33
-72 9 -104 7 -110 -8z"/>
<path d="M3327 3713 c-10 -10 -8 -88 3 -117 13 -35 71 -37 88 -3 7 15 11 17
11 6 1 -20 32 -49 53 -49 9 0 21 -7 28 -15 19 -23 30 -18 30 13 0 38 -46 82
-87 82 -23 0 -40 10 -72 45 -45 48 -44 48 -54 38z"/>
<path d="M6347 3690 c-6 -22 10 -38 23 -24 5 5 3 17 -4 27 -13 16 -14 16 -19
-3z"/>
<path d="M5623 3679 c-8 -8 -8 -20 -1 -41 l11 -30 18 28 c13 21 15 32 7 41
-13 16 -21 16 -35 2z"/>
<path d="M5762 3678 c-25 -25 -7 -86 21 -75 21 8 33 67 16 78 -18 12 -23 11
-37 -3z"/>
<path d="M6250 3675 c0 -8 5 -15 10 -15 6 0 10 7 10 15 0 8 -4 15 -10 15 -5 0
-10 -7 -10 -15z"/>
<path d="M5287 3673 c-11 -10 -8 -62 4 -84 8 -16 13 -18 25 -8 8 6 14 19 14
28 0 9 7 26 15 37 8 12 11 24 8 28 -8 8 -58 8 -66 -1z"/>
<path d="M5465 3670 c-11 -18 29 -85 54 -88 42 -6 55 44 21 78 -21 21 -65 27
-75 10z"/>
<path d="M5920 3648 c0 -13 8 -31 19 -40 10 -8 21 -22 23 -29 6 -19 28 -1 28
25 0 28 -19 52 -47 61 -19 5 -23 3 -23 -17z"/>
<path d="M4695 3643 c-48 -10 -51 -14 -31 -29 38 -27 100 -8 75 23 -7 7 -14
12 -18 12 -3 -1 -15 -3 -26 -6z"/>
<path d="M6051 3631 c-10 -6 -9 -10 3 -14 8 -3 18 -2 21 3 8 13 -9 20 -24 11z"/>
<path d="M3690 3500 c-28 -21 -25 -28 10 -32 17 -2 25 3 28 16 6 29 -11 37
-38 16z"/>
<path d="M3841 3446 c-10 -11 -9 -21 4 -46 18 -34 35 -32 35 5 0 50 -17 67
-39 41z"/>
<path d="M3997 3350 c-3 -11 -1 -20 4 -20 5 0 9 9 9 20 0 11 -2 20 -4 20 -2 0
-6 -9 -9 -20z"/>
<path d="M4090 3330 c0 -5 4 -10 9 -10 6 0 13 5 16 10 3 6 -1 10 -9 10 -9 0
-16 -4 -16 -10z"/>
<path d="M3612 3298 c-15 -15 -16 -99 -1 -131 20 -44 110 -64 143 -32 20 20
44 9 48 -23 4 -35 26 -39 38 -7 16 41 33 20 25 -31 -6 -41 -5 -44 21 -50 32
-8 54 15 54 57 0 15 5 31 10 34 18 11 40 -15 40 -46 0 -31 25 -40 47 -18 8 8
18 6 36 -6 31 -20 72 -11 93 20 19 29 9 52 -32 71 -32 15 -36 15 -54 -1 -12
-11 -26 -14 -40 -10 -18 6 -21 12 -16 35 8 42 -16 58 -40 26 -12 -15 -34 -27
-57 -32 -33 -6 -39 -4 -44 14 -8 30 -67 63 -95 53 -17 -6 -29 -1 -55 25 -18
18 -33 38 -33 43 0 21 -68 29 -88 9z m68 -83 c0 -14 -4 -25 -10 -25 -5 0 -10
11 -10 25 0 14 5 25 10 25 6 0 10 -11 10 -25z"/>
<path d="M4289 3144 c-16 -19 -17 -140 -2 -155 6 -6 35 -11 64 -11 43 1 57 5
68 21 13 21 13 21 38 1 14 -11 34 -20 43 -20 10 0 20 -9 23 -21 8 -29 51 -22
55 9 2 12 10 35 18 50 12 24 12 28 -3 40 -9 6 -26 13 -37 13 -27 2 -27 2 -58
-6 -23 -6 -29 -3 -39 19 -8 17 -20 26 -36 26 -23 0 -32 -23 -13 -35 6 -3 10
-17 10 -31 0 -22 -4 -24 -43 -24 -49 0 -67 13 -67 50 0 34 17 50 52 50 34 0
38 25 6 34 -39 10 -65 7 -79 -10z m268 -150 c-3 -3 -12 -4 -19 -1 -8 3 -5 6 6
6 11 1 17 -2 13 -5z"/>
<path d="M4663 3053 c-10 -3 -10 -10 -2 -24 6 -11 9 -34 7 -52 -3 -28 0 -32
29 -38 45 -9 56 1 48 47 -12 69 -15 74 -43 73 -15 0 -33 -3 -39 -6z"/>
<path d="M5330 3025 c-6 -17 -6 -43 2 -78 14 -63 12 -59 31 -51 12 4 14 11 6
28 -6 13 -7 31 -1 46 10 27 -3 80 -19 80 -5 0 -14 -11 -19 -25z"/>
<path d="M4815 3030 c-18 -29 -23 -79 -8 -91 21 -19 38 5 34 49 -3 41 -15 60
-26 42z"/>
<path d="M4952 3017 c-5 -6 -13 -26 -16 -44 -6 -26 -3 -34 13 -42 18 -10 23
-7 41 31 11 23 19 42 17 43 -22 18 -46 23 -55 12z"/>
<path d="M5133 3013 c-8 -3 -13 -24 -13 -56 0 -75 31 -100 78 -62 1 1 -3 14
-9 29 -9 19 -9 32 -1 50 16 36 -13 57 -55 39z"/>
<path d="M5568 3008 c-14 -12 -14 -16 3 -42 l18 -30 11 29 c14 37 -6 63 -32
43z"/>
<path d="M5667 3013 c-11 -11 -8 -58 5 -71 9 -9 17 -3 36 24 20 29 22 38 11
45 -17 10 -43 12 -52 2z"/>
<path d="M5036 3001 c-4 -5 -2 -12 4 -16 5 -3 10 -15 10 -26 0 -11 7 -19 16
-19 22 0 15 64 -8 68 -9 2 -19 -1 -22 -7z"/>
<path d="M5228 3004 c-9 -9 15 -75 26 -71 5 2 14 16 19 31 7 21 6 31 -4 37
-16 10 -33 11 -41 3z"/>
<path d="M5428 3004 c-3 -3 -3 -17 1 -32 6 -21 14 -28 38 -30 27 -3 31 0 35
27 4 26 1 30 -25 35 -37 7 -42 7 -49 0z"/>
<path d="M5750 3000 c-10 -6 -11 -10 -3 -10 7 0 15 -11 19 -25 7 -28 27 -29
32 -1 4 16 -14 46 -27 46 -3 0 -13 -5 -21 -10z"/>
<path d="M4330 2715 c0 -8 5 -15 10 -15 6 0 10 7 10 15 0 8 -4 15 -10 15 -5 0
-10 -7 -10 -15z"/>
<path d="M3947 2474 c-3 -3 -3 -12 0 -20 3 -8 8 -38 12 -67 6 -49 8 -52 37
-55 25 -2 33 1 37 18 7 29 -11 68 -46 103 -32 30 -31 29 -40 21z"/>
<path d="M4162 2386 c-26 -51 -27 -60 -8 -75 8 -6 17 -37 21 -69 8 -67 11 -73
30 -65 12 4 15 29 15 129 0 113 -2 124 -18 124 -12 0 -26 -16 -40 -44z"/>
<path d="M6540 2319 c0 -41 -3 -91 -7 -113 -5 -34 -4 -38 13 -34 14 3 18 10
15 28 -2 14 -4 60 -5 102 -2 100 -16 115 -16 17z"/>
<path d="M4024 2305 c-3 -8 -2 -32 3 -52 12 -50 36 -54 62 -12 l20 33 -21 23
c-24 26 -56 30 -64 8z"/>
<path d="M3946 2288 c-10 -39 -7 -68 8 -68 22 0 26 12 19 53 -6 42 -18 48 -27
15z"/>
<path d="M5569 2294 c-14 -17 -15 -51 -4 -151 7 -55 10 -63 29 -63 20 0 21 3
16 112 -5 113 -14 135 -41 102z"/>
<path d="M5335 2290 c-11 -18 15 -78 41 -94 23 -16 25 -16 36 9 10 23 8 29
-22 60 -36 37 -45 41 -55 25z"/>
<path d="M6726 2269 c-9 -44 -8 -49 8 -49 21 0 27 14 20 49 -8 40 -20 40 -28
0z"/>
<path d="M4373 2282 c-18 -12 -30 -54 -24 -87 5 -24 11 -30 31 -30 23 0 25 5
28 45 3 48 -15 85 -35 72z"/>
<path d="M4478 2239 c-2 -8 -1 -30 2 -49 l6 -35 7 33 c7 35 -5 78 -15 51z"/>
<path d="M6157 2244 c-10 -10 -9 -52 2 -58 12 -8 24 45 13 56 -4 4 -11 5 -15
2z"/>
<path d="M6249 2243 c-1 -5 -2 -33 -2 -63 -2 -43 1 -55 13 -55 17 0 26 61 16
102 -6 21 -25 33 -27 16z"/>
<path d="M5918 2205 c-3 -69 -3 -75 7 -75 5 0 8 18 6 39 -2 35 0 40 28 49 41
14 39 22 -4 22 -33 0 -35 -2 -37 -35z"/>
<path d="M6061 2196 c-1 -29 2 -37 10 -29 8 8 8 19 1 40 -10 28 -10 28 -11
-11z"/>
<path d="M4275 2200 c-14 -15 -14 -19 -1 -29 21 -18 50 -9 54 15 4 29 -31 38
-53 14z"/>
<path d="M4856 2203 c-3 -10 -2 -31 3 -48 l8 -30 12 28 c8 20 8 34 1 48 -13
24 -17 24 -24 2z"/>
<path d="M4955 2197 c-7 -27 1 -84 11 -75 15 16 21 68 9 85 -12 17 -14 16 -20
-10z"/>
<path d="M6352 2195 c0 -16 2 -22 5 -12 2 9 2 23 0 30 -3 6 -5 -1 -5 -18z"/>
<path d="M4604 2195 c-8 -21 4 -35 31 -35 29 0 41 16 25 35 -16 19 -49 19 -56
0z"/>
<path d="M5085 2201 c-3 -5 -2 -35 1 -66 5 -44 10 -55 23 -53 20 4 28 92 10
114 -13 16 -25 18 -34 5z"/>
<path d="M4710 2180 c0 -5 5 -10 10 -10 6 0 10 5 10 10 0 6 -4 10 -10 10 -5 0
-10 -4 -10 -10z"/>
<path d="M5425 2159 c-4 -5 -4 -21 -1 -35 8 -29 33 -29 50 -1 9 15 7 21 -8 33
-24 17 -33 18 -41 3z"/>
<path d="M3231 2080 c0 -37 2 -41 9 -22 6 13 6 31 0 45 -7 18 -9 14 -9 -23z"/>
<path d="M5725 2100 c-8 -13 -1 -24 14 -19 6 3 7 10 2 18 -6 10 -10 10 -16 1z"/>
<path d="M6060 2084 c0 -14 4 -23 10 -19 6 3 10 15 10 26 0 10 -4 19 -10 19
-5 0 -10 -12 -10 -26z"/>
<path d="M6151 2096 c-9 -10 -9 -16 -1 -21 16 -10 31 7 21 23 -6 10 -10 10
-20 -2z"/>
<path d="M5035 1900 c-19 -7 -19 -7 3 -14 26 -9 41 -1 26 13 -5 5 -18 5 -29 1z"/>
<path d="M5337 1903 c-10 -9 -8 -55 2 -71 13 -21 61 6 61 34 0 30 -45 56 -63
37z"/>
<path d="M5530 1871 c0 -44 19 -58 22 -16 0 14 1 30 2 37 1 6 -5 13 -11 16 -9
2 -13 -9 -13 -37z"/>
<path d="M5196 1877 c-5 -15 -6 -31 -2 -34 11 -11 18 5 14 34 l-4 28 -8 -28z"/>
<path d="M4180 1750 c0 -5 5 -10 10 -10 6 0 10 5 10 10 0 6 -4 10 -10 10 -5 0
-10 -4 -10 -10z"/>
</g>
</svg>
