<?xml version="1.0" standalone="no"?>
<!DOCTYPE svg PUBLIC "-//W3C//DTD SVG 20010904//EN"
 "http://www.w3.org/TR/2001/REC-SVG-20010904/DTD/svg10.dtd">
<svg version="1.0" xmlns="http://www.w3.org/2000/svg"
 width="1080.000000pt" height="1080.000000pt" viewBox="0 0 1080.000000 1080.000000"
 preserveAspectRatio="xMidYMid meet">

<g transform="translate(0.000000,1080.000000) scale(0.100000,-0.100000)"
fill="#000000" stroke="none">
<path d="M6575 7274 c-16 -2 -788 -5 -1715 -7 -1294 -3 -1694 -7 -1725 -16
-22 -7 -65 -17 -95 -22 -31 -6 -62 -18 -73 -29 -10 -11 -21 -20 -26 -20 -5 0
-20 -17 -35 -38 l-26 -38 0 -277 c0 -192 4 -307 15 -375 8 -53 19 -250 25
-437 6 -187 15 -388 20 -447 5 -59 12 -230 15 -380 3 -150 13 -358 21 -463 8
-104 19 -352 24 -550 6 -198 17 -495 25 -660 9 -171 15 -511 15 -790 1 -517
12 -897 29 -955 12 -41 41 -312 48 -450 2 -52 11 -112 19 -135 7 -22 14 -54
14 -71 0 -41 -4 -41 320 -56 335 -16 3002 -15 3670 1 443 12 571 19 587 35 5
4 8 85 8 179 1 95 7 244 15 332 18 209 19 675 1 1040 -10 212 -12 337 -5 465
5 96 7 227 4 290 -6 134 6 689 41 1885 6 198 13 432 15 520 2 88 8 248 12 355
5 107 5 232 0 278 -5 47 -4 108 1 140 4 31 6 85 4 119 -3 34 0 113 6 175 11
104 10 119 -9 182 -30 105 -14 136 69 136 29 0 46 -6 58 -20 18 -21 43 -27 43
-10 0 16 -50 60 -68 60 -10 0 -33 8 -52 18 -32 17 -74 20 -495 26 -253 3 -530
8 -615 10 -85 2 -168 2 -185 0z m344 -73 c6 -9 36 -16 84 -20 139 -12 95 -24
-58 -16 -82 4 -190 9 -240 11 -243 11 -1532 1 -1663 -12 -29 -3 -50 -9 -48
-13 16 -26 -35 -27 -684 -20 -689 7 -761 11 -718 43 14 10 70 12 240 8 203 -4
351 3 603 28 39 4 611 7 1273 6 1022 -1 1204 -3 1211 -15z m-504 -80 c42 -11
-388 -21 -625 -15 -299 7 -344 18 -100 24 253 6 685 1 725 -9z m-3049 -1 c21
0 17 -44 -6 -65 -13 -12 -20 -31 -20 -57 0 -21 -7 -53 -17 -71 -11 -21 -16
-53 -15 -97 5 -184 -1 -352 -13 -397 l-13 -48 -1 86 c-1 82 -15 149 -30 149
-5 0 -11 57 -14 128 -4 70 -13 154 -21 187 -9 37 -11 64 -5 70 17 18 9 34 -31
58 -39 23 -40 24 -21 41 14 13 34 16 84 14 37 -1 70 1 74 5 4 4 13 5 21 2 7
-3 20 -5 28 -5z m1972 3 c-27 -2 -69 -2 -95 0 -27 2 -5 3 47 3 52 0 74 -1 48
-3z m120 0 c-10 -2 -28 -2 -40 0 -13 2 -5 4 17 4 22 1 32 -1 23 -4z m-2484
-46 c9 -14 7 -21 -6 -31 -10 -7 -19 -26 -19 -42 -2 -27 -2 -27 -6 -4 -2 14 -9
37 -14 52 -6 15 -8 32 -4 38 10 15 36 9 49 -13z m317 -889 c-8 -18 -10 -12 -9
32 0 50 1 52 9 23 6 -19 5 -40 0 -55z"/>
<path d="M8011 7114 c0 -11 3 -14 6 -6 3 7 2 16 -1 19 -3 4 -6 -2 -5 -13z"/>
<path d="M8007 6886 c-9 -60 -7 -220 2 -261 8 -35 21 99 20 205 -1 89 -13 120
-22 56z"/>
<path d="M7964 6325 c-11 -302 -11 -481 1 -530 9 -38 9 -36 16 45 10 118 9
671 0 695 -5 12 -12 -77 -17 -210z"/>
<path d="M7927 5463 c-11 -112 -8 -513 3 -513 6 0 10 103 10 290 0 160 -2 290
-4 290 -2 0 -6 -30 -9 -67z"/>
<path d="M7879 4110 c-2 -146 -2 -332 1 -415 5 -150 5 -150 12 -65 10 107 9
628 -1 695 -5 31 -9 -48 -12 -215z"/>
<path d="M7844 2535 c0 -187 2 -262 3 -167 2 95 2 248 0 340 -1 92 -3 14 -3
-173z"/>
</g>
</svg>
