<?xml version="1.0" standalone="no"?>
<!DOCTYPE svg PUBLIC "-//W3C//DTD SVG 20010904//EN"
 "http://www.w3.org/TR/2001/REC-SVG-20010904/DTD/svg10.dtd">
<svg version="1.0" xmlns="http://www.w3.org/2000/svg"
 width="1080.000000pt" height="1080.000000pt" viewBox="0 0 1080.000000 1080.000000"
 preserveAspectRatio="xMidYMid meet">

<g transform="translate(0.000000,1080.000000) scale(0.100000,-0.100000)"
fill="#000000" stroke="none">
<path d="M3600 8480 c-249 -13 -552 -39 -624 -54 -39 -8 -118 -21 -176 -30
-228 -32 -499 -105 -640 -173 -96 -46 -191 -115 -230 -167 -59 -79 -66 -141
-46 -405 9 -118 19 -217 21 -221 2 -4 9 -116 15 -251 6 -134 19 -350 30 -479
10 -129 22 -314 25 -410 3 -96 12 -238 20 -315 8 -77 19 -248 25 -380 5 -132
17 -301 25 -375 8 -74 19 -249 25 -387 5 -139 16 -306 24 -370 8 -65 20 -239
26 -388 6 -148 15 -292 21 -320 5 -27 13 -131 18 -230 6 -155 10 -186 29 -222
12 -23 22 -48 22 -56 0 -31 119 -173 184 -219 36 -27 70 -48 75 -48 4 0 24
-11 44 -24 20 -14 53 -29 73 -35 20 -5 44 -16 53 -24 9 -8 38 -20 66 -26 27
-7 55 -17 61 -22 6 -5 39 -15 75 -23 35 -9 91 -22 124 -30 65 -16 210 -44 290
-56 80 -12 440 -34 560 -34 362 1 940 57 1057 102 14 6 54 16 88 22 35 6 72
17 84 25 12 7 37 16 56 20 35 7 100 34 200 83 89 44 174 107 205 154 17 23 35
46 41 50 6 4 17 20 23 36 7 15 25 36 40 45 l29 17 72 -67 c39 -37 80 -72 90
-77 11 -6 46 -29 80 -51 109 -72 134 -87 200 -122 36 -19 70 -38 75 -43 6 -5
24 -12 40 -16 17 -4 50 -18 74 -31 24 -12 52 -23 63 -23 10 0 36 -9 57 -20 22
-11 59 -22 83 -26 23 -3 70 -14 103 -24 33 -10 89 -21 125 -25 36 -3 103 -13
150 -21 107 -18 185 -18 280 0 41 8 111 17 155 21 44 4 95 13 113 21 18 7 59
18 92 24 33 6 79 20 102 30 24 11 52 20 63 20 11 0 41 11 67 25 26 14 56 25
66 25 11 0 30 9 44 19 13 11 36 23 51 26 14 4 33 15 43 26 9 10 22 19 28 19
12 0 99 54 126 78 24 20 90 62 99 62 15 0 280 261 344 339 59 71 78 99 144
204 14 23 34 53 43 67 10 14 21 37 25 50 4 14 15 36 25 50 10 14 21 36 24 50
4 14 16 43 26 65 32 67 94 273 110 360 17 94 40 312 40 376 0 229 -75 595
-156 764 -13 28 -24 58 -24 67 0 9 -4 19 -9 22 -5 3 -21 31 -37 62 -52 103
-62 120 -78 133 -9 8 -16 19 -16 25 0 13 -45 81 -75 113 -11 12 -38 43 -60 69
-103 124 -252 264 -345 327 -14 9 -43 30 -65 46 -22 17 -53 37 -70 46 -16 9
-48 27 -70 40 -61 36 -179 93 -211 101 -16 4 -42 16 -59 26 -16 10 -40 18 -53
18 -12 0 -39 8 -60 19 -20 10 -57 22 -82 26 -25 3 -83 16 -130 28 -77 19 -113
21 -370 21 -265 1 -290 -1 -355 -21 -38 -12 -92 -25 -120 -29 -27 -3 -69 -15
-92 -25 -23 -11 -50 -19 -60 -19 -10 0 -39 -11 -65 -25 -26 -14 -52 -25 -58
-25 -12 0 -131 -58 -202 -98 -25 -15 -60 -35 -78 -45 -17 -10 -40 -27 -51 -38
-23 -23 -33 -24 -53 -4 -12 12 -14 33 -10 98 2 45 9 183 14 307 6 124 15 252
20 285 5 33 14 186 20 340 6 154 15 312 20 350 37 281 37 281 1 326 -87 109
-98 117 -225 184 -117 62 -391 156 -496 171 -25 3 -70 12 -100 20 -114 29
-415 67 -660 84 -413 29 -579 33 -840 20z m277 -711 c12 -12 6 -203 -6 -227
-6 -10 -14 -8 -34 8 -24 19 -27 28 -27 85 0 35 -5 75 -11 89 -17 37 -5 56 34
56 18 0 38 -5 44 -11z m-1450 -249 c9 0 12 -32 12 -115 0 -123 19 -461 26
-483 3 -7 10 -154 15 -325 11 -321 22 -546 39 -817 6 -85 15 -312 21 -505 6
-192 14 -390 20 -440 5 -49 14 -241 20 -425 6 -184 15 -382 21 -440 20 -224
40 -883 27 -896 -10 -9 -46 18 -57 43 -7 14 -11 99 -11 206 -1 172 -6 253 -29
477 -6 52 -15 208 -21 345 -6 138 -17 318 -25 400 -8 83 -21 305 -30 494 -9
190 -20 363 -25 385 -5 23 -14 172 -20 331 -6 160 -15 342 -20 405 -5 63 -14
216 -20 340 -21 462 -31 637 -40 700 -5 36 -10 115 -10 177 0 110 0 112 27
133 17 13 35 19 48 16 11 -3 25 -6 32 -6z m2309 -1516 l-7 -28 -13 25 c-9 16
-10 28 -3 37 16 20 31 -2 23 -34z m-1672 30 c14 -5 14 -9 4 -22 -10 -11 -14
-93 -19 -311 l-5 -296 -2 318 c-1 174 0 317 2 317 2 0 12 -3 20 -6z m244 -11
c-26 -2 -71 -2 -100 0 -29 2 -8 3 47 3 55 0 79 -1 53 -3z m1245 0 c-40 -2
-107 -2 -150 0 -43 1 -10 3 72 3 83 0 118 -2 78 -3z m181 -469 c2 -225 0 -528
-4 -674 -5 -208 -7 -118 -8 414 -1 374 0 677 3 674 3 -3 7 -189 9 -414z m-769
171 c0 -14 -8 -21 -30 -25 -34 -6 -57 -42 -52 -82 4 -30 -17 -39 -27 -12 -15
39 -6 95 19 120 32 32 90 31 90 -1z m13 -115 c-2 -19 -10 -26 -30 -28 -27 -3
-38 11 -19 23 5 3 13 20 16 37 7 30 8 31 22 12 7 -10 13 -30 11 -44z m-388
-896 c0 -18 -14 -18 -29 0 -9 11 -9 15 1 19 17 6 28 -1 28 -19z m-200 -9 c0
-14 -4 -25 -10 -25 -5 0 -10 11 -10 25 0 14 5 25 10 25 6 0 10 -11 10 -25z
m240 -26 c0 -5 -7 -9 -15 -9 -15 0 -20 12 -9 23 8 8 24 -1 24 -14z m110 0 c0
-5 -7 -9 -15 -9 -15 0 -20 12 -9 23 8 8 24 -1 24 -14z m565 -39 c3 -5 -1 -10
-10 -10 -9 0 -13 5 -10 10 3 6 8 10 10 10 2 0 7 -4 10 -10z m427 -84 c3 -14 1
-31 -3 -38 -6 -8 -9 1 -9 25 0 42 6 48 12 13z m-1602 -121 c0 -7 -35 -6 -42 1
-3 3 -4 13 -1 24 5 18 5 18 24 -1 10 -10 19 -21 19 -24z m1515 5 c3 -5 -3 -10
-15 -10 -12 0 -18 5 -15 10 3 6 10 10 15 10 5 0 12 -4 15 -10z m-927 -47 c-21
-2 -55 -2 -75 0 -21 2 -4 4 37 4 41 0 58 -2 38 -4z m575 0 c-29 -2 -77 -2
-105 0 -29 2 -6 3 52 3 58 0 81 -1 53 -3z"/>
</g>
</svg>
